<svg xmlns="http://www.w3.org/2000/svg" width="378.307" height="149.307"><path d="M258.484 858.066V570.945h290.457v290.446H258.484z" style="fill:#0c2f59;fill-opacity:1;fill-rule:nonzero;stroke:none" transform="matrix(.13333 0 0 -.13333 0 149.307)"/><path d="M258.484 858.066V570.945h290.457v290.446H258.484z" style="fill:none;stroke:#fff;stroke-width:6.64945;stroke-linecap:butt;stroke-linejoin:miter;stroke-miterlimit:4;stroke-dasharray:none;stroke-opacity:1" transform="matrix(.13333 0 0 -.13333 0 149.307)"/><path d="M258.465 545.508V258.469h290.398v290.386H258.465z" style="fill:#f68712;fill-opacity:1;fill-rule:nonzero;stroke:none" transform="matrix(.13333 0 0 -.13333 0 149.307)"/><path d="M258.465 545.508V258.469h290.398v290.386H258.465z" style="fill:none;stroke:#fff;stroke-width:6.69378;stroke-linecap:butt;stroke-linejoin:miter;stroke-miterlimit:4;stroke-dasharray:none;stroke-opacity:1" transform="matrix(.13333 0 0 -.13333 0 149.307)"/><path d="M2236.45 261.969h36.37v101.554l88.23-101.554h52.24l-103.32 110.082 91.72 87.597h-49.54l-79.33-80.234v165.594h-36.37zM1441.17 261.969h34.82v27.863h.78c9.67-14.703 32.12-32.508 67.33-32.508 59.6 0 84.75 52.633 84.75 106.809 0 53.015-27.86 99.84-85.13 99.84-34.45 0-54.18-13.543-65.4-31.735h-.78v112.313h-36.37zm148.98 99.453c.78-30.957-15.48-74.684-54.56-74.684-41.02 0-58.05 40.629-58.05 73.524 0 36.761 18.96 74.301 58.44 74.301 39.47 0 54.95-37.54 54.17-73.141M714.918 262.195h36.375v197.356h-36.375zM714.918 509.457h36.375v36.375h-36.375zM817.809 261.969h36.375v91.328c0 47.984 18.574 81.266 59.98 81.266 31.734-1.934 41.797-24.379 41.797-70.43V261.969h36.375v117.254c0 53.015-22.832 84.75-73.914 84.75-27.477 0-53.789-13.543-64.625-35.989h-.774v31.344h-35.214zm236.441 0h36.37v91.328c0 47.984 18.58 81.266 59.99 81.266 31.73-1.934 41.79-24.379 41.79-70.43V261.969h36.38v117.254c0 53.015-22.84 84.75-73.92 84.75-27.47 0-53.79-13.543-64.62-35.989h-.78v31.344h-35.21zm219.8 6.191c16.64-8.898 35.6-10.836 54.18-10.836 35.21 0 68.88 19.352 68.88 61.531 0 63.079-85.52 51.469-85.52 91.715 0 16.25 16.25 23.993 34.82 23.993 8.52 0 30.19-5.032 38.31-10.063l3.1 31.73c-14.32 4.258-28.25 7.743-45.28 7.743-39.08 0-69.65-19.739-69.65-60.754 0-55.34 85.52-52.242 85.52-88.235 0-21.281-20.51-28.246-37.15-28.246-10.45 0-30.96 4.641-45.28 13.93zm403.61-6.191h36.38v89.781c0 49.531 21.28 80.488 53.79 80.488 6.19 0 13.54-.773 20.12-3.48v32.504c-7.74 1.551-13.16 2.711-23.99 2.711-20.9 0-41.8-14.707-51.47-35.215h-.77v30.57h-34.06zm325.06 197.359h-36.38v-91.324c0-47.988-18.57-81.266-59.98-81.266-31.73 1.934-41.79 24.379-41.79 70.43v102.16h-36.38V342.074c0-53.015 22.83-84.75 73.92-84.75 27.47 0 53.79 13.547 64.62 35.992h.77v-31.347h35.22zm190.39-3.098c-10.45 4.258-29.41 7.743-44.12 7.743-60.36 0-100.61-43.34-100.61-103.325 0-56.496 41.02-103.324 100.61-103.324 13.16 0 30.58 1.164 45.67 8.129l-2.71 32.508c-11.22-7.356-26.7-11.223-39.09-11.223-46.82 0-65.78 38.696-65.78 73.91 0 37.54 22.83 73.915 63.46 73.915 11.61 0 25.54-2.711 39.47-8.516zM2213.5 772.477h-52.24v67.472l-36.37-11.605v-55.867h-44.51v-29.414h44.51V627.746c0-39.473 23.22-57.273 60.75-57.273 11.61 0 22.83 3.097 30.96 5.418v30.957c-5.42-3.481-13.54-6.965-24.77-6.965-16.64 0-30.57 12.383-30.57 35.215v107.965h52.24zM2579.05 772.477h-52.24v67.472l-36.38-11.605v-55.867h-44.5v-29.414h44.5V627.746c0-39.473 23.22-57.273 60.76-57.273 11.6 0 22.83 3.097 30.95 5.418v30.957c-5.41-3.481-13.54-6.965-24.76-6.965-16.64 0-30.57 12.383-30.57 35.215v107.965h52.24zM2005.49 821.672h36.37v36.379h-36.37zM1188.29 821.672h36.37v36.379h-36.37zM2285.74 803.484h36.38v36.379h-36.38zM2348.86 803.484h36.37v36.379h-36.37zM885.262 771.727h-36.379v-91.329c0-47.984-18.574-81.265-59.981-81.265-31.73 1.933-41.793 24.379-41.793 70.43v102.164h-36.375V654.473c0-53.016 22.829-84.75 73.911-84.75 27.476 0 53.789 13.543 64.625 35.988h.777v-31.344h35.215zm61.91-197.36h36.379v91.324c0 47.989 18.569 81.266 59.979 81.266 31.73-1.934 41.79-24.379 41.79-70.43v-102.16h36.38v117.254c0 53.016-22.83 84.746-73.91 84.746-27.48 0-53.79-13.543-64.63-35.988h-.773v31.348h-35.215zm241.088 0h36.37v197.36h-36.37zm261.21 197.36h-36.38l-54.56-160.985h-.78l-53.4 160.985h-39.86l70.82-197.36h43.34zm186.52-152.86c-8.9-7.351-36.76-19.734-60.75-19.734-34.45 0-65.02 26.703-65.02 65.785h140.86c0 63.465-21.28 111.449-87.07 111.449-55.72 0-92.48-41.406-92.48-99.84 0-64.234 32.12-106.804 102.16-106.804 32.5 0 48.37 7.742 62.3 12.769zm-125.77 73.141c2.71 25.539 17.42 54.949 53.02 54.949 31.34 0 49.15-24.766 49.15-54.949zm189.62-117.641h36.38v89.778c0 49.535 21.28 80.492 53.79 80.492 6.19 0 13.54-.774 20.12-3.485v32.508c-7.74 1.547-13.16 2.707-23.99 2.707-20.9 0-41.79-14.703-51.47-35.215h-.77v30.575h-34.06zm133.89 6.192c16.64-8.903 35.61-10.836 54.18-10.836 35.22 0 68.88 19.347 68.88 61.531 0 63.078-85.52 51.465-85.52 91.711 0 16.254 16.25 23.992 34.83 23.992 8.51 0 30.18-5.027 38.31-10.059l3.1 31.731c-14.32 4.258-28.25 7.738-45.28 7.738-39.09 0-69.66-19.734-69.66-60.754 0-55.336 85.53-52.242 85.53-88.23 0-21.285-20.51-28.25-37.15-28.25-10.45 0-30.96 4.644-45.28 13.933zm171.82-6.192h36.38v197.36h-36.38zm264.69 152.469c14.7 12.383 36.76 20.121 57.27 20.121 36.38 0 48.76-17.41 48.76-51.465-14.32.774-24.38.774-38.7.774-37.53 0-91.71-15.481-91.71-65.012 0-42.957 29.8-61.531 72.36-61.531 33.28 0 52.63 18.187 61.15 30.183h.77v-25.539h34.06c-.78 5.805-1.55 16.254-1.55 38.699v81.653c0 53.789-22.83 81.648-79.33 81.648-25.16 0-46.83-7.738-65.02-18.574zm106.03-75.848c0-29.41-18.96-51.855-54.95-51.855-16.64 0-36.76 11.222-36.76 32.121 0 34.828 48.76 37.922 68.49 37.922 7.74 0 15.48-.774 23.22-.774z" style="fill:#0c2f59;fill-opacity:1;fill-rule:nonzero;stroke:none" transform="matrix(.13333 0 0 -.13333 0 149.307)"/></svg>